<svg width="11" height="20" viewBox="0 0 11 20" fill="none" xmlns="http://www.w3.org/2000/svg">
<path d="M7 9.61187H5.5V11.1119V17.825H4.5V11.1119V9.61187H3H1.5V8.74687H3H4.5V7.24687V4.54137C4.5 3.41308 4.85959 2.70144 5.3277 2.26386C5.81087 1.8122 6.57427 1.49999 7.643 1.49999C8.12374 1.49999 8.59172 1.51347 9 1.53188V1.88187C7.83474 1.88187 6.69499 2.14783 6.01938 3.11725C5.71067 3.56021 5.59488 4.02626 5.54517 4.38871C5.4997 4.72018 5.49987 5.05497 5.49999 5.28155C5.49999 5.29276 5.5 5.3037 5.5 5.31437V7.24687V8.74687H7H8.56251L8.33871 9.61187H7Z" fill="url(#paint0_linear_4_7)" stroke="#CAB1A6" stroke-width="3"/>
<defs>
<linearGradient id="paint0_linear_4_7" x1="1.44375" y1="3.1403" x2="12.8299" y2="9.78506" gradientUnits="userSpaceOnUse">
<stop stop-color="#97413B"/>
<stop offset="1" stop-color="#AA544E"/>
</linearGradient>
</defs>
</svg>
