<svg width="20" height="20" viewBox="0 0 20 20" fill="none" xmlns="http://www.w3.org/2000/svg">
<path d="M5.8 0H14.2C17.4 0 20 2.51225 20 5.60425V13.7208C20 15.2071 19.3889 16.6326 18.3012 17.6836C17.2135 18.7346 15.7383 19.325 14.2 19.325H5.8C2.6 19.325 0 16.8128 0 13.7208V5.60425C0 4.11791 0.61107 2.69245 1.69878 1.64145C2.78649 0.590446 4.26174 0 5.8 0ZM5.6 1.9325C4.64522 1.9325 3.72955 2.29898 3.05442 2.95133C2.37928 3.60367 2 4.48844 2 5.411V13.914C2 15.8368 3.61 17.3925 5.6 17.3925H14.4C15.3548 17.3925 16.2705 17.026 16.9456 16.3737C17.6207 15.7213 18 14.8366 18 13.914V5.411C18 3.48816 16.39 1.9325 14.4 1.9325H5.6ZM15.25 3.38187C15.5815 3.38187 15.8995 3.50913 16.1339 3.73563C16.3683 3.96214 16.5 4.26936 16.5 4.58969C16.5 4.91002 16.3683 5.21723 16.1339 5.44374C15.8995 5.67025 15.5815 5.7975 15.25 5.7975C14.9185 5.7975 14.6005 5.67025 14.3661 5.44374C14.1317 5.21723 14 4.91002 14 4.58969C14 4.26936 14.1317 3.96214 14.3661 3.73563C14.6005 3.50913 14.9185 3.38187 15.25 3.38187ZM10 4.83125C11.3261 4.83125 12.5979 5.34026 13.5355 6.24629C14.4732 7.15233 15 8.38117 15 9.6625C15 10.9438 14.4732 12.1727 13.5355 13.0787C12.5979 13.9847 11.3261 14.4937 10 14.4937C8.67392 14.4937 7.40215 13.9847 6.46447 13.0787C5.52678 12.1727 5 10.9438 5 9.6625C5 8.38117 5.52678 7.15233 6.46447 6.24629C7.40215 5.34026 8.67392 4.83125 10 4.83125ZM10 6.76375C9.20435 6.76375 8.44129 7.06915 7.87868 7.61277C7.31607 8.15639 7 8.8937 7 9.6625C7 10.4313 7.31607 11.1686 7.87868 11.7122C8.44129 12.2558 9.20435 12.5612 10 12.5612C10.7956 12.5612 11.5587 12.2558 12.1213 11.7122C12.6839 11.1686 13 10.4313 13 9.6625C13 8.8937 12.6839 8.15639 12.1213 7.61277C11.5587 7.06915 10.7956 6.76375 10 6.76375Z" fill="#CAB1A6"/>
</svg>
